<svg width="146" height="51" viewBox="0 0 146 51" fill="none" xmlns="http://www.w3.org/2000/svg">
<g clip-path="url(#clip0_5483_4188)">
<path d="M135.886 0.285645H9.21192C4.24297 0.285645 0.214844 4.31377 0.214844 9.28272V40.0273C0.214844 44.9962 4.24297 49.0244 9.21192 49.0244H135.886C140.855 49.0244 144.883 44.9962 144.883 40.0273V9.28272C144.883 4.31377 140.855 0.285645 135.886 0.285645Z" fill="#010E26"/>
<path d="M135.886 0.285645H9.21192C4.24297 0.285645 0.214844 4.31377 0.214844 9.28272V40.0273C0.214844 44.9962 4.24297 49.0244 9.21192 49.0244H135.886C140.855 49.0244 144.883 44.9962 144.883 40.0273V9.28272C144.883 4.31377 140.855 0.285645 135.886 0.285645Z" stroke="black" stroke-width="0.432"/>
<path d="M29.252 25.4764C29.2648 24.4867 29.5277 23.5164 30.0163 22.6557C30.5049 21.7949 31.2033 21.0718 32.0465 20.5535C31.5109 19.7886 30.8043 19.1591 29.9829 18.715C29.1614 18.271 28.2477 18.0246 27.3144 17.9954C25.3242 17.7859 23.3925 19.1861 22.3786 19.1861C21.3437 19.1861 19.7819 18.0153 18.0996 18.0505C17.0115 18.0858 15.9511 18.4022 15.0217 18.9691C14.0923 19.536 13.3256 20.3339 12.7962 21.2852C10.5027 25.254 12.2131 31.0901 14.4106 34.299C15.5099 35.8702 16.7942 37.6263 18.4742 37.563C20.1191 37.4951 20.7337 36.5152 22.7181 36.5152C24.685 36.5152 25.261 37.563 26.9761 37.5244C28.7415 37.4951 29.8526 35.9451 30.9132 34.3588C31.703 33.2391 32.3107 32.0015 32.7138 30.692C31.6885 30.2585 30.8135 29.5328 30.1979 28.6053C29.5823 27.6778 29.2533 26.5896 29.252 25.4764ZM26.0137 15.8846C26.9761 14.7296 27.4502 13.245 27.3355 11.7461C25.8652 11.9003 24.507 12.603 23.5318 13.7141C23.0551 14.2567 22.69 14.888 22.4574 15.5718C22.2248 16.2556 22.1292 16.9785 22.1761 17.6992C22.9114 17.7068 23.6388 17.5474 24.3035 17.2331C24.9683 16.9188 25.553 16.4577 26.0137 15.8846ZM118.519 15.9572C118.519 16.1632 118.5 16.2944 118.491 16.4161H114.492C114.623 17.1841 115.138 17.8491 116.253 17.8491C116.852 17.8491 117.545 17.6243 118.004 17.2871L118.388 17.9708C117.938 18.3268 117.124 18.6733 116.234 18.6733C114.333 18.6733 113.555 17.3433 113.555 16.0321C113.555 14.5429 114.576 13.419 116.093 13.419C117.489 13.419 118.519 14.365 118.519 15.9572ZM116.093 14.2151C115.25 14.2151 114.642 14.8146 114.492 15.6388H117.592C117.536 14.749 116.899 14.2151 116.093 14.2151ZM108.199 18.5609V11.4709H109.069V14.1589C109.369 13.7188 109.959 13.4097 110.661 13.4097C111.701 13.4097 112.637 14.084 112.637 15.517V18.5609H111.748V15.7699C111.748 14.749 111.204 14.2432 110.474 14.2432C109.659 14.2432 109.097 14.8708 109.097 15.7699V18.5609H108.199ZM107.258 17.5681L107.595 18.2612C107.23 18.5422 106.733 18.6827 106.256 18.6827C105.169 18.6827 104.654 17.9708 104.654 16.8001V14.3088H103.764V13.5408H104.663V11.7613H105.544V13.5408H107.323V14.3088H105.544V16.8657C105.544 17.4745 105.759 17.8585 106.359 17.8585C106.677 17.8585 106.986 17.7367 107.258 17.5681ZM96.589 18.5609V13.5408H97.4693V14.2526C97.7691 13.7188 98.3497 13.4097 99.0615 13.4097C100.101 13.4097 101.047 14.084 101.047 15.517V18.5609H100.157V15.7699C100.157 14.7584 99.6048 14.2432 98.8742 14.2432C98.0594 14.2432 97.4881 14.8801 97.4881 15.7792V18.5609H96.589ZM92.9995 18.6827C91.4448 18.6827 90.3583 17.5119 90.3583 16.0415C90.3583 14.5991 91.4448 13.4097 92.9995 13.4097C94.5449 13.4097 95.6313 14.5991 95.6313 16.0415C95.6313 17.5119 94.5449 18.6827 92.9995 18.6827ZM92.9995 17.8585C93.9735 17.8585 94.7322 17.0343 94.7322 16.0415C94.7322 15.0674 93.9735 14.2432 92.9995 14.2432C92.0254 14.2432 91.2668 15.0674 91.2668 16.0415C91.2668 17.0343 92.0254 17.8585 92.9995 17.8585ZM86.2982 11.4709H87.1973V18.5609H86.2982V17.8585C86.0912 18.121 85.8261 18.332 85.5239 18.475C85.2217 18.618 84.8905 18.6891 84.5562 18.6827C83.0857 18.6827 82.0274 17.5119 82.0274 16.0415C82.0274 14.5898 83.0951 13.419 84.5374 13.419C84.8768 13.4158 85.2123 13.491 85.5177 13.6388C85.8232 13.7867 86.0903 14.0031 86.2982 14.2713V11.4709ZM84.6498 17.8585C85.6988 17.8585 86.3638 17.0343 86.3638 16.0415C86.3638 15.0674 85.6988 14.2432 84.6498 14.2432C83.6009 14.2432 82.9359 15.0674 82.9359 16.0415C82.9359 17.0343 83.6009 17.8585 84.6498 17.8585ZM80.1952 13.5408H81.0569V18.5609H80.194V17.8491C79.9832 18.1148 79.7139 18.3283 79.4071 18.4729C79.1003 18.6175 78.7642 18.6893 78.425 18.6827C76.9815 18.6827 75.915 17.5213 75.915 16.0134C75.915 14.5148 76.9827 13.419 78.425 13.419C79.1556 13.419 79.755 13.7375 80.194 14.2713L80.1952 13.5408ZM78.5281 17.8585C79.577 17.8585 80.2514 17.0343 80.2514 16.0415C80.2514 15.0674 79.577 14.2432 78.5281 14.2432C77.4791 14.2432 76.8235 15.0674 76.8235 16.0508C76.8235 17.0343 77.4791 17.8585 78.5281 17.8585ZM72.6334 18.6827C71.0787 18.6827 69.9923 17.5119 69.9923 16.0415C69.9923 14.5991 71.0787 13.4097 72.6334 13.4097C74.1788 13.4097 75.2652 14.5991 75.2652 16.0415C75.2652 17.5119 74.1788 18.6827 72.6334 18.6827ZM72.6334 17.8585C73.6075 17.8585 74.3661 17.0343 74.3661 16.0415C74.3661 15.0674 73.6075 14.2432 72.6334 14.2432C71.6594 14.2432 70.9008 15.0674 70.9008 16.0415C70.9008 17.0343 71.6594 17.8585 72.6334 17.8585ZM69.0206 18.5609H68.1214V11.4709H69.0206V18.5609ZM62.4469 18.5609V13.5408H63.3273V14.2526C63.627 13.7188 64.2077 13.4097 64.9195 13.4097C65.9591 13.4097 66.905 14.084 66.905 15.517V18.5609H66.0153V15.7699C66.0153 14.7584 65.4627 14.2432 64.7322 14.2432C63.9173 14.2432 63.346 14.8801 63.346 15.7792V18.5609H62.4469ZM55.8288 18.5504L54.1054 13.5396H55.0514L56.2409 17.3047L57.6083 13.5396H58.2358L59.6594 17.3047L60.802 13.5396H61.7386L60.0621 18.5504H59.3129L57.9267 14.7947L56.5687 18.5504H55.8288ZM51.2161 18.6827C49.6613 18.6827 48.5749 17.5119 48.5749 16.0415C48.5749 14.5991 49.6613 13.4097 51.2161 13.4097C52.7614 13.4097 53.8479 14.5991 53.8479 16.0415C53.8479 17.5119 52.7614 18.6827 51.2161 18.6827ZM51.2161 17.8585C52.1901 17.8585 52.9488 17.0343 52.9488 16.0415C52.9488 15.0674 52.1901 14.2432 51.2161 14.2432C50.242 14.2432 49.4834 15.0674 49.4834 16.0415C49.4834 17.0343 50.242 17.8585 51.2161 17.8585ZM42.0797 18.5597V11.6384H44.6553C46.6128 11.6384 47.8397 12.9777 47.8397 15.1131C47.8397 17.2298 46.6034 18.5597 44.5616 18.5597H42.0797ZM43.0163 17.67H44.5991C46.0695 17.67 46.8656 16.5461 46.8656 15.085C46.8656 13.6427 46.0695 12.5281 44.5991 12.5281H43.0163V17.67ZM48.9437 32.4294H44.818L43.8276 35.2883H42.0797L45.9876 24.7119H47.8022L51.7113 35.2883H49.9318L48.9425 32.4306L48.9437 32.4294ZM45.2442 31.1111H48.5152L46.9031 26.4715H46.8586L45.2442 31.1111ZM60.1511 31.4343C60.1511 33.8308 58.8375 35.3703 56.8578 35.3703C56.3569 35.3959 55.8587 35.2829 55.4178 35.0436C54.9811 34.8076 54.6196 34.4534 54.3747 34.0216H54.3372V37.8405H52.717V27.5779H54.2857V28.861H54.315C54.5679 28.4325 54.9355 28.0801 55.378 27.8401C55.8222 27.5994 56.3224 27.481 56.8274 27.4971C58.8293 27.4971 60.1511 29.0448 60.1511 31.4343ZM58.4851 31.4343C58.4851 29.8725 57.6598 28.8469 56.4012 28.8469C55.1626 28.8469 54.329 29.8948 54.329 31.4343C54.329 32.9878 55.1626 34.0286 56.4012 34.0286C57.6598 34.0286 58.4851 33.0101 58.4851 31.4343ZM68.8356 31.4343C68.8356 33.8308 67.5244 35.3703 65.5423 35.3703C65.0414 35.3959 64.5431 35.2829 64.1023 35.0436C63.6659 34.8071 63.3048 34.4525 63.0604 34.0204H63.0229V37.8405H61.4026V27.5779H62.9714V28.861H63.0007C63.2535 28.4325 63.6211 28.0801 64.0637 27.8401C64.5079 27.5994 65.0081 27.481 65.5131 27.4971C67.515 27.4971 68.8356 29.0448 68.8356 31.4343ZM67.1708 31.4343C67.1708 29.8725 66.3454 28.8469 65.0857 28.8469C63.8483 28.8469 63.0159 29.8948 63.0159 31.4343C63.0159 32.9878 63.8471 34.0286 65.0857 34.0286C66.3454 34.0286 67.1708 33.0101 67.1708 31.4343ZM74.5757 32.3416C74.6963 33.3906 75.7394 34.0801 77.1642 34.0801C78.5293 34.0801 79.5115 33.3906 79.5115 32.4458C79.5115 31.6239 78.9191 31.1334 77.5166 30.795L76.114 30.4661C74.1261 29.9966 73.2036 29.0881 73.2036 27.6142C73.2036 25.7902 74.8309 24.5363 77.1419 24.5363C79.4295 24.5363 80.9972 25.789 81.0498 27.6153H79.4143C79.3171 26.5593 78.4239 25.9225 77.1197 25.9225C75.8143 25.9225 74.921 26.5664 74.921 27.5053C74.921 28.2522 75.4912 28.6924 76.8867 29.0296L78.0797 29.3152C80.3006 29.8292 81.2231 30.7002 81.2231 32.2468C81.2231 34.2253 79.6098 35.4663 77.0436 35.4663C74.6436 35.4663 73.0233 34.2546 72.9179 32.3416H74.5757ZM84.7189 25.7527V27.5779H86.2186V28.8306H84.7189V33.0815C84.7189 33.7418 85.0186 34.0497 85.6789 34.0497C85.8568 34.0473 86.0348 34.0345 86.2116 34.0146V35.259C85.9154 35.3129 85.6145 35.3375 85.3113 35.3328C83.7144 35.3328 83.0904 34.7463 83.0904 33.2512V28.8306H81.9431V27.5779H83.0904V25.7527H84.7189ZM87.0885 31.4343C87.0885 29.0073 88.5507 27.483 90.8313 27.483C93.1189 27.483 94.5753 29.0073 94.5753 31.4331C94.5753 33.8659 93.1271 35.3843 90.8313 35.3843C88.5367 35.3843 87.0885 33.867 87.0885 31.4343ZM92.9246 31.4343C92.9246 29.7695 92.1437 28.7872 90.8313 28.7872C89.5189 28.7872 88.7392 29.7765 88.7392 31.4331C88.7392 33.1037 89.5189 34.0789 90.8313 34.0789C92.1437 34.0789 92.9246 33.1049 92.9246 31.4343ZM95.9099 27.5779H97.4553V28.8903H97.4928C97.597 28.4805 97.8428 28.1176 98.1882 27.8647C98.5362 27.6106 98.9599 27.4815 99.3905 27.4983C99.5778 27.4971 99.764 27.517 99.9454 27.5568V29.0366C99.7097 28.9665 99.4643 28.9345 99.2184 28.9418C98.9842 28.9327 98.7508 28.9732 98.5333 29.0606C98.3158 29.1479 98.1192 29.2802 97.9564 29.4487C97.7975 29.6162 97.6771 29.8163 97.6035 30.035C97.5299 30.2538 97.5049 30.486 97.5302 30.7154V35.2895H95.9099V27.5779ZM107.415 33.0229C107.196 34.4231 105.801 35.3843 104.016 35.3843C101.72 35.3843 100.295 33.8811 100.295 31.4694C100.295 29.0507 101.728 27.483 103.948 27.483C106.132 27.483 107.504 28.9476 107.504 31.2856V31.8288H101.931V31.9236C101.905 32.2085 101.941 32.4958 102.037 32.7653C102.133 33.0349 102.286 33.2802 102.487 33.4842C102.691 33.691 102.935 33.8533 103.205 33.9607C103.474 34.0681 103.763 34.1184 104.054 34.1082C104.436 34.1433 104.82 34.0567 105.149 33.8612C105.475 33.6678 105.73 33.3742 105.875 33.0241H107.414L107.415 33.0229ZM101.938 30.7225H105.883C105.899 30.4659 105.859 30.2091 105.768 29.969C105.676 29.7288 105.535 29.5108 105.353 29.3293C105.169 29.1455 104.95 29.0007 104.708 28.9035C104.467 28.8064 104.208 28.7589 103.948 28.7638C103.418 28.7616 102.908 28.9661 102.526 29.334C102.34 29.5147 102.193 29.7306 102.092 29.9691C101.991 30.2075 101.939 30.4636 101.938 30.7225Z" fill="white"/>
</g>
<defs>
<clipPath id="clip0_5483_4188">
<rect width="145.171" height="50.3415" fill="white"/>
</clipPath>
</defs>
</svg>
