<svg width="146" height="50" viewBox="0 0 146 50" fill="none" xmlns="http://www.w3.org/2000/svg">
<g clip-path="url(#clip0_5483_6664)">
<path d="M135.847 0.283447H10.2269C5.2993 0.283447 1.30469 4.27879 1.30469 9.20729V39.7016C1.30469 44.6301 5.2993 48.6255 10.2269 48.6255H135.847C140.775 48.6255 144.77 44.6301 144.77 39.7016V9.20729C144.77 4.27879 140.775 0.283447 135.847 0.283447Z" fill="#010E26"/>
<path d="M135.847 0.283447H10.2269C5.2993 0.283447 1.30469 4.27879 1.30469 9.20729V39.7016C1.30469 44.6301 5.2993 48.6255 10.2269 48.6255H135.847C140.775 48.6255 144.77 44.6301 144.77 39.7016V9.20729C144.77 4.27879 140.775 0.283447 135.847 0.283447Z" stroke="black" stroke-width="0.432"/>
<path d="M23.9467 23.8511L12.8047 35.6779L12.807 35.6849C12.9266 36.1331 13.1483 36.5475 13.4547 36.8958C13.761 37.2441 14.1438 37.5168 14.573 37.6926C15.0023 37.8683 15.4663 37.9424 15.9289 37.9089C16.3916 37.8755 16.8402 37.7355 17.2397 37.4998L17.2745 37.4789L29.8167 30.2412L23.9467 23.8511Z" fill="#EA4335"/>
<path d="M35.2177 21.8375L35.2061 21.8294L29.7924 18.6907L23.6914 24.1205L29.8145 30.2412L35.1992 27.1338C35.6762 26.8763 36.075 26.4949 36.3535 26.0298C36.632 25.5646 36.78 25.033 36.7817 24.4908C36.7835 23.9487 36.6391 23.4161 36.3636 22.9491C36.0882 22.4822 35.6931 22.0981 35.2177 21.8375Z" fill="#FFD700"/>
<path d="M12.8053 13.2295C12.7371 13.482 12.7028 13.7425 12.7031 14.004V34.9033C12.7031 35.1716 12.738 35.4317 12.8076 35.6779L24.3305 24.1518L12.8053 13.2295Z" fill="#4285F4"/>
<path d="M24.028 24.4549L29.7946 18.6884L17.2675 11.4239C16.8677 11.1831 16.4174 11.0385 15.9521 11.0016C15.4868 10.9647 15.0193 11.0365 14.5865 11.2112C14.1537 11.386 13.7675 11.659 13.4583 12.0087C13.149 12.3583 12.9253 12.7751 12.8047 13.2261V13.2295L24.028 24.4549Z" fill="#4DBF39"/>
<path d="M88.4511 11.5005H89.3706V18.3655H88.8877L84.7731 13.4977V18.3655H83.8536V11.5005H84.2716L88.4511 16.3961V11.5005ZM79.097 18.4781C77.0897 18.4781 75.5757 16.9361 75.5757 14.9759C75.5757 12.9694 77.1733 11.3809 79.1237 11.3809C80.0666 11.3827 80.9704 11.7581 81.6371 12.425C82.3038 13.0918 82.6792 13.9957 82.681 14.9388C82.681 16.8896 81.1032 18.4781 79.097 18.4781ZM79.1237 17.577C80.5727 17.577 81.7151 16.4623 81.7151 14.9481C81.7151 13.4246 80.5634 12.2912 79.1237 12.2912C77.6934 12.2912 76.5417 13.4432 76.5417 14.9481C76.5417 16.4344 77.6562 17.577 79.1237 17.577ZM70.3211 12.4016H68.2882V11.5005H73.2851V12.4016H71.2511V18.3655H70.3223L70.3211 12.4016ZM66.4771 11.5005H67.4059V18.3655H66.4771V11.5005ZM60.7766 12.4016H58.7425V11.5005H63.7394V12.4016H61.7054V18.3655H60.7766V12.4016ZM53.9314 18.3655V11.5005H58.2038V12.383H54.8602V14.436H57.9531V15.3185H54.8602V17.483H58.2038V18.3655H53.9314ZM49.5823 18.4688C47.5575 18.4688 46.0715 16.9732 46.0715 14.9388C46.0715 12.8486 47.6969 11.3809 49.638 11.3809C50.8083 11.3809 51.895 11.9011 52.4987 12.6442L51.8393 13.2481C51.5634 12.9407 51.2252 12.6956 50.8473 12.529C50.4693 12.3625 50.0603 12.2782 49.6473 12.282C48.1705 12.282 47.0188 13.3874 47.0188 14.9481C47.0188 16.4716 48.1705 17.577 49.6195 17.577C50.4554 17.577 51.2634 17.1962 51.8207 16.6109V15.2453H49.5266V14.3907H52.6938V17.0197C51.8486 17.9951 50.7433 18.4688 49.5823 18.4688ZM97.3153 34.3599H98.7665V24.636H97.3153V34.3599ZM110.385 28.1382L108.722 32.3533H108.672L106.946 28.1382H105.382L107.971 34.0301L106.496 37.307H108.008L111.998 28.1382H110.385ZM102.155 33.2544C101.679 33.2544 101.018 33.0175 101.018 32.4288C101.018 31.6787 101.842 31.3907 102.556 31.3907C103.193 31.3907 103.494 31.5289 103.882 31.7158C103.829 32.1377 103.624 32.5259 103.307 32.8088C102.99 33.0916 102.581 33.2499 102.155 33.2544ZM102.331 27.9257C101.28 27.9257 100.191 28.389 99.7418 29.4143L101.03 29.952C101.304 29.4143 101.818 29.239 102.355 29.239C103.106 29.239 103.869 29.6884 103.882 30.4896V30.5895C103.416 30.3418 102.896 30.213 102.368 30.2144C100.979 30.2144 99.5665 30.9773 99.5665 32.4033C99.5665 33.7038 100.704 34.5434 101.98 34.5434C102.955 34.5434 103.494 34.1056 103.832 33.5912H103.882V34.3425H105.282V30.615C105.282 28.8883 103.993 27.9257 102.331 27.9257ZM93.3633 29.3214H91.299V25.9888H93.3633C93.8096 25.9845 94.2393 26.1575 94.558 26.47C94.8768 26.7825 95.0584 27.2088 95.063 27.6551C95.063 28.4087 94.4488 29.3214 93.3633 29.3214ZM93.325 24.636H89.849V34.3587H91.299V30.6754H93.325C94.9341 30.6754 96.5142 29.5096 96.5142 27.6551C96.5142 25.7995 94.9341 24.636 93.325 24.636ZM74.366 33.2556C73.3629 33.2556 72.5235 32.4172 72.5235 31.2641C72.5235 30.0994 73.3629 29.246 74.3648 29.246C75.3552 29.246 76.1307 30.0994 76.1307 31.2641C76.1307 32.4172 75.3552 33.2556 74.366 33.2556ZM76.032 28.6828H75.9809C75.6559 28.2938 75.0289 27.9431 74.2394 27.9431C72.5862 27.9431 71.0699 29.3969 71.0699 31.2641C71.0699 33.1186 72.5862 34.5596 74.2394 34.5596C75.0289 34.5596 75.6559 34.2089 75.9809 33.8072H76.032V34.2833C76.032 35.549 75.3552 36.2259 74.265 36.2259C73.3757 36.2259 72.8242 35.5873 72.5978 35.0485L71.3323 35.5745C71.6957 36.4524 72.6617 37.5288 74.265 37.5288C75.9693 37.5288 77.4101 36.5267 77.4101 34.0835V28.144H76.032V28.6828ZM78.412 34.3587H79.8656V24.6348H78.412V34.3587ZM82.0076 31.1515C81.9705 29.8742 82.9968 29.2216 83.7364 29.2216C84.3134 29.2216 84.801 29.5096 84.9635 29.9229L82.0076 31.1515ZM86.5181 30.0484C86.2429 29.3098 85.4035 27.9431 83.6853 27.9431C81.9821 27.9431 80.5668 29.2831 80.5668 31.2525C80.5668 33.1058 81.9705 34.5596 83.849 34.5596C85.3652 34.5596 86.2429 33.6318 86.6052 33.093L85.479 32.3417C85.1028 32.8921 84.5885 33.2556 83.849 33.2556C83.1106 33.2556 82.5835 32.9177 82.2456 32.2546L86.6667 30.4234L86.5158 30.0472L86.5181 30.0484ZM51.2832 28.9591V30.3619H54.6407C54.5397 31.1515 54.2774 31.7275 53.8768 32.1281C53.388 32.6169 52.6229 33.1569 51.2832 33.1569C49.2154 33.1569 47.5993 31.4894 47.5993 29.4225C47.5993 27.3544 49.2154 25.688 51.2832 25.688C52.3977 25.688 53.2127 26.127 53.8141 26.6902L54.8033 25.7008C53.9639 24.8984 52.8493 24.2841 51.2832 24.2841C48.4515 24.2841 46.0703 26.5903 46.0703 29.4225C46.0703 32.2546 48.4515 34.5596 51.2832 34.5596C52.811 34.5596 53.9639 34.058 54.866 33.1186C55.7948 32.1908 56.0815 30.8891 56.0815 29.8347C56.0849 29.5407 56.0596 29.2471 56.0061 28.958L51.2832 28.9591ZM59.8989 33.2556C58.8969 33.2556 58.032 32.4288 58.032 31.2514C58.032 30.0611 58.8969 29.246 59.8989 29.246C60.9008 29.246 61.7658 30.0611 61.7658 31.2514C61.7658 32.4288 60.9008 33.2556 59.8989 33.2556ZM59.8989 27.9431C58.0692 27.9431 56.5784 29.3342 56.5784 31.2525C56.5784 33.1569 58.0692 34.5596 59.8989 34.5596C61.7274 34.5596 63.2193 33.1569 63.2193 31.2514C63.2193 29.3354 61.7274 27.9431 59.8989 27.9431ZM67.1411 33.2556C66.1392 33.2556 65.2743 32.4288 65.2743 31.2514C65.2743 30.0611 66.1392 29.246 67.1411 29.246C68.1442 29.246 69.008 30.0611 69.008 31.2514C69.008 32.4288 68.1442 33.2556 67.1411 33.2556ZM67.1411 27.9431C65.3126 27.9431 63.8207 29.3342 63.8207 31.2525C63.8207 33.1569 65.3126 34.5596 67.1411 34.5596C68.9709 34.5596 70.4616 33.1569 70.4616 31.2514C70.4616 29.3354 68.9709 27.9431 67.1411 27.9431Z" fill="white"/>
</g>
<defs>
<clipPath id="clip0_5483_6664">
<rect width="145.124" height="49.9317" fill="white"/>
</clipPath>
</defs>
</svg>
