<svg width="48" height="48" viewBox="0 0 48 48" fill="none" xmlns="http://www.w3.org/2000/svg">
<rect width="48" height="48" rx="24" fill="#EFF7FF"/>
<path d="M30.925 18.3667C31.5697 18.3667 32.0923 17.8441 32.0923 17.1994C32.0923 16.5548 31.5697 16.0322 30.925 16.0322C30.2804 16.0322 29.7578 16.5548 29.7578 17.1994C29.7578 17.8441 30.2804 18.3667 30.925 18.3667Z" fill="white"/>
<path d="M12.9559 30.7301C11.2015 32.4873 10.3715 34.9301 10.7503 37.2234C13.0437 37.599 15.4848 36.7679 17.2409 35.014C18.9953 33.2568 19.8253 30.814 19.4465 28.5206C17.1531 28.1451 14.712 28.9762 12.9559 30.7301Z" fill="#FCEA2B"/>
<path d="M21.7639 29.466C21.6566 30.0025 21.3934 30.4953 21.0072 30.8827C20.8189 31.0701 20.6047 31.2295 20.3711 31.356C21.5628 32.9879 22.4467 34.8235 22.9794 36.7727C23.3739 36.4279 23.752 36.0635 24.1139 35.6794C25.1816 34.5433 26.0886 33.2663 26.8094 31.8838C27.503 30.5434 28.0157 29.1169 28.3339 27.6416C26.2622 28.7277 24.0161 29.351 21.7639 29.466Z" fill="#61B2E4"/>
<path d="M12.2898 23.8606C11.9064 24.2217 11.5416 24.5991 11.1953 24.9928C13.146 25.5222 14.9837 26.4031 16.6181 27.5923C16.7442 27.3623 16.9014 27.1512 17.087 26.9656C17.4733 26.5806 17.9645 26.3178 18.4992 26.2101C18.6159 23.9601 19.2414 21.7156 20.3281 19.6467L20.3314 19.6406C18.8556 19.9591 17.4284 20.4715 16.087 21.1645C14.7043 21.886 13.4267 22.7931 12.2898 23.8606Z" fill="#92D3F5"/>
<path d="M23.3461 15.5261C20.44 18.4428 18.6983 22.2839 18.5 26.2111C18.9479 26.1204 19.4113 26.1418 19.8489 26.2734C20.2865 26.405 20.6848 26.6428 21.0083 26.9655C21.3326 27.2903 21.5711 27.6904 21.7026 28.13C21.8341 28.5696 21.8544 29.035 21.7617 29.4844C25.6928 29.2839 29.535 27.5383 32.4517 24.6289C36.1806 20.8939 37.9433 15.7028 37.1372 10.8289C36.1657 10.6709 35.1806 10.6126 34.1972 10.655C30.2117 10.8172 26.3028 12.5722 23.3461 15.5261ZM29.04 15.2316C29.5313 14.7404 30.1977 14.4644 30.8925 14.4644C31.5873 14.4644 32.2537 14.7404 32.745 15.2316C32.9884 15.4747 33.1816 15.7634 33.3134 16.0812C33.4452 16.399 33.5131 16.7396 33.5132 17.0836C33.5133 17.4277 33.4456 17.7683 33.314 18.0862C33.1824 18.4041 32.9894 18.6929 32.7461 18.9361C32.2506 19.4062 31.5907 19.6642 30.9077 19.6553C30.2248 19.6464 29.5724 19.3713 29.0893 18.8884C28.6063 18.4056 28.3308 17.7533 28.3216 17.0703C28.3124 16.3874 28.5701 15.7279 29.04 15.2322" fill="#EA5A47"/>
<path d="M18.742 32.9094C18.2527 33.4579 17.6906 33.9367 17.0714 34.3328C15.1325 35.5678 12.7797 35.9072 10.7153 35.2511C10.632 35.9155 10.6431 36.5794 10.7486 37.2233C13.042 37.5989 15.4831 36.7678 17.2392 35.0133C17.8509 34.3981 18.3584 33.6876 18.742 32.9094Z" fill="#F1B31C"/>
<path d="M18.5573 25.4928C18.5388 25.7306 18.5262 25.9682 18.5195 26.2056C18.9672 26.1186 19.4295 26.1435 19.8653 26.2782C20.301 26.4128 20.6968 26.6529 21.0174 26.9773C21.338 27.3017 21.5736 27.7002 21.7031 28.1375C21.8327 28.5748 21.8523 29.0373 21.7601 29.4839C25.6906 29.2834 29.5323 27.5378 32.449 24.6284C33.2766 23.7923 34.0164 22.8736 34.6568 21.8867C33.9065 22.5693 33.0974 23.1843 32.239 23.7245C28.0401 26.3412 22.9645 26.9978 18.5573 25.4928Z" fill="#D22F27"/>
<path d="M17.3556 30.9729C17.839 30.7295 18.3112 30.4632 18.7723 30.174C20.1353 29.3184 21.3746 28.28 22.4556 27.0879L22.4568 27.0862C23.4993 25.9281 24.3835 24.6369 25.0862 23.2462C25.12 23.1792 25.1398 23.1061 25.1445 23.0312C23.2562 22.6129 16.8968 28.7262 17.3556 30.9729Z" fill="#61B2E4"/>
<path d="M30.8904 20.3833C29.0704 20.3833 27.5898 18.9033 27.5898 17.0833C27.5898 15.2633 29.0704 13.7844 30.8904 13.7844C32.7104 13.7844 34.191 15.2644 34.191 17.0839C34.191 18.9033 32.7104 20.3833 30.8904 20.3833ZM30.8904 14.8839C29.6771 14.8839 28.6904 15.8705 28.6904 17.0839C28.6904 18.2972 29.6771 19.2839 30.8904 19.2839C32.1037 19.2839 33.0904 18.2966 33.0904 17.0839C33.0904 15.8711 32.1037 14.8839 30.8904 14.8839Z" fill="black"/>
<path d="M24.596 22.9978C23.2484 23.6787 21.9968 24.5351 20.8738 25.5445C19.7184 26.5912 18.712 27.7915 17.8827 29.1117C17.6034 29.5567 17.3454 30.0146 17.1094 30.4839" stroke="black" stroke-width="0.48725" stroke-linecap="round" stroke-linejoin="round"/>
</svg>
