<svg width="40" height="40" viewBox="0 0 40 40" fill="none" xmlns="http://www.w3.org/2000/svg">
<circle cx="20" cy="20" r="20" fill="#092049"/>
<g clip-path="url(#clip0_5152_28754)">
<path d="M14.9802 10.6407C14.98 11.2122 14.7653 11.7601 14.3835 12.164C14.0016 12.5679 13.4839 12.7947 12.9442 12.7944C12.4045 12.7941 11.8869 12.5668 11.5055 12.1625C11.124 11.7582 10.9099 11.21 10.9102 10.6385C10.9104 10.0671 11.1251 9.51911 11.5069 9.11522C11.8888 8.71132 12.4065 8.48458 12.9462 8.48486C13.4859 8.48515 14.0035 8.71244 14.3849 9.11674C14.7664 9.52104 14.9805 10.0692 14.9802 10.6407ZM15.0413 14.39H10.9712V27.8788H15.0413V14.39ZM21.472 14.39H17.4223V27.8788H21.4313V20.8004C21.4313 16.8572 26.2849 16.4909 26.2849 20.8004V27.8788H30.3041V19.3352C30.3041 12.6877 23.1204 12.9355 21.4313 16.2L21.472 14.39Z" fill="#EFF7FF"/>
</g>
<defs>
<clipPath id="clip0_5152_28754">
<rect width="19.3939" height="19.3939" fill="white" transform="translate(10.9102 8.48486)"/>
</clipPath>
</defs>
</svg>
